<svg width="21" height="20" viewBox="0 0 21 20"  xmlns="http://www.w3.org/2000/svg">
    <g clip-path="url(#clip0_511_39279)">
        <path d="M16.0295 0.755289C16.5034 0.755289 16.9773 0.749967 17.4459 0.755289C18.3778 0.765933 19.0913 1.17042 19.5759 1.96876C19.8155 2.3626 19.9007 2.7937 19.9007 3.24609C19.9007 3.98588 19.9007 4.72567 19.9007 5.46014C19.8953 6.22122 19.4534 6.66297 18.6919 6.66297C13.1328 6.66297 7.57373 6.66297 2.01462 6.66297C1.9241 6.66297 1.82825 6.66297 1.71643 6.66297C1.71111 6.74812 1.70578 6.81731 1.70578 6.8865C1.70578 10.4151 1.70578 13.9385 1.70578 17.4671C1.70578 18.0579 2.05722 18.4091 2.64828 18.4145C3.01036 18.4145 3.36713 18.4145 3.72921 18.4145C4.17117 18.4198 4.50131 18.7338 4.52793 19.1702C4.54923 19.5853 4.22442 19.9632 3.78246 19.9739C3.23933 19.9898 2.68555 20.0218 2.14774 19.9419C1.01356 19.7716 0.225485 18.8509 0.140288 17.7066C0.134963 17.6214 0.129639 17.5363 0.129639 17.4458C0.129639 12.7303 0.129639 8.00949 0.129639 3.29399C0.129639 2.33067 0.513025 1.58556 1.3437 1.07994C1.72708 0.845767 2.15307 0.749967 2.60035 0.749967C3.06361 0.749967 3.53219 0.749967 4.0061 0.749967C4.0274 0.670133 4.0487 0.600944 4.07 0.531755C4.18715 0.169843 4.51729 -0.0377236 4.906 -0.000468023C5.26276 0.0367876 5.56095 0.308221 5.57692 0.675455C5.60355 1.23961 5.60355 1.80377 5.58225 2.36792C5.56627 2.7458 5.24678 3.03853 4.87937 3.06514C4.49599 3.09707 4.1765 2.87354 4.05935 2.5063C4.04338 2.44776 4.0274 2.38921 4.0061 2.32535C3.48427 2.32535 2.95711 2.29874 2.43528 2.33599C2.04125 2.37325 1.73773 2.68726 1.72176 3.08643C1.69513 3.74106 1.71643 4.40102 1.71643 5.07694C7.24891 5.07694 12.7707 5.07694 18.3192 5.07694C18.3245 5.0184 18.3299 4.95453 18.3299 4.89066C18.3299 4.34247 18.3299 3.79961 18.3299 3.25142C18.3245 2.68726 17.9731 2.33067 17.4033 2.33067C16.9614 2.33067 16.5247 2.33067 16.0828 2.33067C16.0615 2.33067 16.0455 2.34131 16.0189 2.34664C16.0029 2.4105 15.9816 2.46905 15.9656 2.53291C15.8538 2.87354 15.5556 3.09175 15.1935 3.0811C14.8527 3.07578 14.5439 2.8416 14.4694 2.5063C14.4374 2.36792 14.3842 2.32535 14.2457 2.32535C13.1595 2.33067 12.0732 2.33067 10.9923 2.32535C10.8645 2.32535 10.8059 2.35728 10.7739 2.48501C10.6781 2.85225 10.3852 3.0811 10.0231 3.0811C9.66105 3.0811 9.36819 2.85225 9.26169 2.49034C9.24572 2.43711 9.22974 2.38921 9.20845 2.32535C8.73454 2.32535 8.26063 2.33599 7.79205 2.32002C7.62698 2.3147 7.44593 2.27212 7.29684 2.19761C6.99332 2.04327 6.84955 1.70797 6.91345 1.38863C6.97735 1.07462 7.25956 0.797867 7.59503 0.776578C8.04764 0.749967 8.50025 0.755289 8.95286 0.760611C9.12857 0.760611 9.23507 0.744644 9.28299 0.531755C9.36287 0.196455 9.693 -0.00579025 10.0444 0.00485421C10.3852 0.0154987 10.6887 0.228388 10.7633 0.563689C10.8006 0.739322 10.8858 0.760611 11.0349 0.760611C12.0945 0.755289 13.1541 0.755289 14.2084 0.760611C14.3629 0.760611 14.4374 0.728678 14.4747 0.558366C14.5599 0.223066 14.874 0.00485421 15.2202 0.00485421C15.5716 0.00485421 15.8591 0.217743 15.9656 0.553044C15.9869 0.616911 16.0082 0.680778 16.0295 0.755289Z" />
        <path d="M10.0072 19.9579C7.21163 19.9791 4.65039 17.7172 4.66104 14.5984C4.67169 11.4583 7.23825 9.2176 10.0924 9.25485C12.8772 9.29211 15.3692 11.5008 15.3746 14.5984C15.3852 17.7438 12.7974 19.9951 10.0072 19.9579ZM13.9954 14.6303C14.0327 12.5706 12.382 10.6227 10.0125 10.6333C7.64826 10.6386 6.06147 12.5706 6.04017 14.5664C6.01887 16.674 7.70151 18.5794 10.0072 18.59C12.3288 18.5954 14.0114 16.69 13.9954 14.6303Z" />
        <path d="M19.9007 13.2892C19.9007 14.6943 19.906 16.094 19.9007 17.4991C19.8953 18.6753 19.2084 19.6067 18.1115 19.8994C17.8346 19.9739 17.5365 19.9792 17.2436 19.9899C16.9028 20.0005 16.562 20.0005 16.2266 19.9792C15.8272 19.9526 15.545 19.6493 15.5077 19.2554C15.4758 18.9042 15.7154 18.5582 16.0721 18.4571C16.1573 18.4305 16.2532 18.4252 16.349 18.4252C16.6951 18.4198 17.0413 18.4252 17.3874 18.4252C17.9784 18.4198 18.3299 18.0686 18.3299 17.4778C18.3299 14.6251 18.3299 11.7724 18.3352 8.91965C18.3352 8.74402 18.3671 8.55774 18.4364 8.39807C18.5748 8.08406 18.9209 7.91907 19.2404 7.97762C19.5918 8.04148 19.8474 8.31292 19.89 8.66418C19.9007 8.76531 19.9007 8.86111 19.9007 8.96223C19.9007 10.4046 19.9007 11.8469 19.9007 13.2892Z" />
        <path d="M11.4821 15.4552C11.4662 15.9183 11.2212 16.2962 10.7686 16.541C10.6674 16.5942 10.6089 16.6527 10.5929 16.7805C10.5663 17.0732 10.3373 17.2754 10.0338 17.318C9.81015 17.35 9.51196 17.185 9.43741 16.9348C9.38416 16.7485 9.27234 16.7006 9.1126 16.6794C9.03272 16.6687 8.95818 16.6421 8.88363 16.6155C8.64934 16.525 8.52687 16.3015 8.57479 16.0779C8.64401 15.7426 8.79843 15.5883 9.0913 15.6096C9.28831 15.6202 9.48001 15.6841 9.67703 15.7054C9.81015 15.716 9.95924 15.7054 10.087 15.6681C10.2841 15.6096 10.316 15.402 10.1456 15.2849C10.0338 15.2051 9.89534 15.1572 9.77287 15.0987C9.56521 14.9975 9.34156 14.9177 9.14455 14.7953C8.34582 14.2897 8.35647 13.2359 9.16052 12.7356C9.29896 12.6504 9.38949 12.5706 9.40546 12.3896C9.42144 12.1555 9.66638 11.9585 9.89534 11.9319C10.2095 11.9 10.4598 12.0277 10.5503 12.2992C10.6035 12.4535 10.6781 12.5174 10.8378 12.5493C11.1467 12.6132 11.2851 12.8474 11.2319 13.1614C11.1839 13.4381 10.971 13.5978 10.6674 13.5765C10.5503 13.5659 10.4331 13.5339 10.316 13.518C10.2521 13.5073 10.1829 13.4967 10.119 13.5073C9.98587 13.5286 9.79417 13.5339 9.79417 13.6989C9.79417 13.7894 9.93794 13.9065 10.0444 13.9597C10.3 14.0981 10.5876 14.1886 10.8378 14.3269C11.2532 14.5558 11.4768 14.9124 11.4821 15.4552Z"/>
    </g>
    <defs>
        <clipPath id="clip0_511_39279">
            <rect width="20" height="19.9903"  transform="translate(0.0178223 0.00488281)"/>
        </clipPath>
    </defs>
</svg>